#!OML:ASF X:\für Bonn\!DataBase\2005_08_11_Bastian_Final\c3d\Bastian.ASF
:FULLY-SPECIFIED
:DEGREES
305
root 0.662777 15.8801 -15.8481 546.166 -212.672 -165.848
lowerback 42.6566 -5.19182 17.3267
upperback 13.1963 2.69168 9.91818
thorax -4.6945 1.73009 1.05121
lowerneck -25.1907 -7.59753 1.2256
upperneck -6.29286 -10.2679 -2.46888
head 1.95931 -5.29554 -1.98154
rclavicle -7.95139e-014 -2.54444e-014
rhumerus 22.8067 16.7017 -48.5858
rradius 31.9026
rwrist -34.4539
rhand -25.2503 0.116162
rfingers 7.12502
rthumb 1.26979 -29.8598
lclavicle -7.95139e-014 -2.54444e-014
lhumerus -41.2317 41.1044 2.1139
lradius 8.48249
lwrist -22.8694
lhand -20.2743 -18.742
lfingers 7.12502
lthumb 6.07501 11.1509
rfemur -50.8056 -25.7507 24.9051
rtibia 78.0345
rfoot -14.4622 4.17823
rtoes 13.8708
lfemur -13.9067 16.6561 -22.2323
ltibia 53.287
lfoot -31.1338 -8.83554
ltoes -29.8456
306
root 0.591785 15.9432 -15.9014 545.716 -213.825 -165.976
lowerback 42.3316 -5.15115 17.1426
upperback 13.2459 2.57875 9.68966
thorax -4.56277 1.70678 0.920866
lowerneck -25.2182 -7.76841 1.15668
upperneck -6.1805 -10.464 -2.32688
head 2.00917 -5.38085 -1.94591
rclavicle -4.45278e-014 3.49861e-014
rhumerus 22.7777 17.814 -48.7065
rradius 31.933
rwrist -34.3512
rhand -25.5934 -0.386992
rfingers 7.12502
rthumb 0.938421 -30.3647
lclavicle -4.45278e-014 3.49861e-014
lhumerus -44.9872 46.8307 -2.4556
lradius 7.12134
lwrist -32.8467
lhand -20.5656 -22.0351
lfingers 7.12502
lthumb 5.79378 7.86572
rfemur -48.9342 -24.4633 23.3794
rtibia 78.3835
rfoot -13.9334 2.47296
rtoes 16.8373
lfemur -13.3625 15.9857 -21.8326
ltibia 52.4341
lfoot -30.9344 -8.21467
ltoes -30.6589
307
root 0.524508 16.0157 -15.9472 545.16 -214.966 -166.281
lowerback 42.1688 -5.10292 17.0115
upperback 13.1548 2.57492 9.62888
thorax -4.63391 1.7072 0.907668
lowerneck -25.033 -7.9522 0.923138
upperneck -6.04338 -10.6349 -2.255
head 2.03822 -5.45373 -1.89321
rclavicle 1.145e-013 9.54166e-015
rhumerus 22.6862 19.1369 -48.6099
rradius 31.9784
rwrist -34.3698
rhand -25.6526 -1.19285
rfingers 7.12502
rthumb 0.881285 -31.1708
lclavicle 1.145e-013 9.54166e-015
lhumerus -50.317 51.8525 -8.21064
lradius 5.69184
lwrist -42.6353
lhand -20.9035 -24.7131
lfingers 7.12502
lthumb 5.46748 5.19636
rfemur -46.9153 -22.9347 22.015
rtibia 78.4191
rfoot -13.2995 1.12264
rtoes 18.9454
lfemur -12.7159 15.227 -21.3058
ltibia 51.4387
lfoot -30.6989 -7.56215
ltoes -31.0801
308
root 0.460694 16.0951 -15.9877 544.525 -216.055 -166.657
lowerback 42.083 -5.08147 16.9547
upperback 13.0326 2.58884 9.55451
thorax -4.75107 1.71273 0.841645
lowerneck -24.8235 -8.11578 0.76707
upperneck -5.89461 -10.8014 -2.21724
head 2.06205 -5.52773 -1.86367
rclavicle -8.5875e-014 1.90833e-014
rhumerus 22.6278 20.359 -48.6567
rradius 31.9238
rwrist -34.2471
rhand -25.3612 -2.09169
rfingers 7.12502
rthumb 1.16269 -32.0683
lclavicle -8.5875e-014 1.90833e-014
lhumerus -57.4861 56.1897 -15.6554
lradius 4.34397
lwrist -52.3015
lhand -21.1224 -26.5188
lfingers 7.12502
lthumb 5.25614 3.39601
rfemur -44.7846 -21.1753 20.7589
rtibia 78.1522
rfoot -12.7646 0.133152
rtoes 19.8241
lfemur -11.9574 14.4096 -20.7448
ltibia 50.3179
lfoot -30.4292 -6.98953
ltoes -31.0788
309
root 0.402121 16.1789 -16.0211 543.808 -217.108 -167.134
lowerback 41.9279 -5.0692 16.9644
upperback 12.9572 2.59632 9.49744
thorax -4.78987 1.72317 0.766513
lowerneck -24.6653 -8.26014 0.636326
upperneck -5.71963 -10.9491 -2.18248
head 2.10318 -5.59309 -1.84186
rclavicle 3.49861e-014 2.8625e-014
rhumerus 22.713 21.4717 -48.7757
rradius 31.7209
rwrist -33.9746
rhand -24.761 -2.98846
rfingers 7.12502
rthumb 1.74244 -32.9611
lclavicle 3.49861e-014 2.8625e-014
lhumerus -66.8419 59.6815 -25.1399
lradius 3.16375
lwrist -61.7405
lhand -20.9496 -27.3435
lfingers 7.12502
lthumb 5.42305 2.56707
rfemur -42.5399 -19.1928 19.6328
rtibia 77.6308
rfoot -12.5308 -0.563241
rtoes 20.8792
lfemur -11.1104 13.5362 -20.122
ltibia 49.0954
lfoot -30.0946 -6.5638
ltoes -30.7732
310
root 0.352817 16.2632 -16.0471 543.004 -218.128 -167.713
lowerback 41.6823 -5.06757 17.0626
upperback 12.8804 2.60095 9.43191
thorax -4.79431 1.73613 0.641666
lowerneck -24.4645 -8.37472 0.647561
upperneck -5.5045 -11.0958 -2.22813
head 2.13936 -5.66438 -1.8693
rclavicle 6.99722e-014 3.49861e-014
rhumerus 22.7913 22.5597 -49.0349
rradius 31.439
rwrist -33.5852
rhand -24.0197 -3.77933
rfingers 7.12502
rthumb 2.45833 -33.7449
lclavicle 6.99722e-014 3.49861e-014
lhumerus -78.1884 61.9167 -36.5959
lradius 2.15623
lwrist -70.9441
lhand -20.3651 -27.294
lfingers 7.12502
lthumb 5.98738 2.60135
rfemur -40.1699 -16.7628 18.6429
rtibia 76.881
rfoot -12.5467 -1.0055
rtoes 22.7656
lfemur -10.1956 12.6528 -19.4356
ltibia 47.8252
lfoot -29.7293 -6.36357
ltoes -30.0826
311
root 0.31579 16.3451 -16.0652 542.241 -219.138 -168.237
lowerback 41.1783 -5.0471 17.1312
upperback 12.8774 2.54073 9.36528
thorax -4.64768 1.73213 0.54883
lowerneck -24.2029 -8.4796 0.670147
upperneck -5.33818 -11.2352 -2.25335
head 2.14819 -5.73144 -1.88532
rclavicle 5.40694e-014 2.8625e-014
rhumerus 22.9653 23.6287 -49.3399
rradius 31.0931
rwrist -33.1545
rhand -23.2088 -4.34889
rfingers 7.12502
rthumb 3.24141 -34.304
lclavicle 5.40694e-014 2.8625e-014
lhumerus -90.9262 62.6785 -49.3864
lradius 1.38429
lwrist -79.8189
lhand -19.3895 -26.482
lfingers 7.12502
lthumb 6.92921 3.3846
rfemur -37.7884 -14.2587 17.7376
rtibia 75.9627
rfoot -12.789 -1.13236
rtoes 24.5146
lfemur -9.24058 11.6942 -18.8532
ltibia 46.5537
lfoot -29.4078 -6.27459
ltoes -28.8815
312
root 0.288596 16.418 -16.077 541.496 -220.117 -168.719
lowerback 40.5435 -4.99459 17.1573
upperback 12.9033 2.46203 9.2874
thorax -4.43306 1.72442 0.467159
lowerneck -23.9853 -8.59098 0.697738
upperneck -5.06654 -11.3835 -2.27301
head 2.20183 -5.80283 -1.90838
rclavicle 1.59028e-014 -3.18055e-014
rhumerus 23.1177 24.6513 -49.74
rradius 30.7666
rwrist -32.5869
rhand -22.3909 -4.73074
rfingers 7.12502
rthumb 4.03126 -34.6723
lclavicle 1.59028e-014 -3.18055e-014
lhumerus -103.525 61.9079 -62.0619
lradius 0.842075
lwrist -88.2811
lhand -18.1183 -25.1936
lfingers 7.12502
lthumb 8.15614 4.62902
rfemur -35.4331 -11.5782 16.9865
rtibia 74.8974
rfoot -13.0832 -1.37735
rtoes 24.6091
lfemur -8.28024 10.5745 -18.3914
ltibia 45.3584
lfoot -29.2091 -6.15555
ltoes -27.5608
313
root 0.266116 16.4804 -16.0826 540.828 -221.093 -169.113
lowerback 39.7822 -4.90699 17.1048
upperback 12.9575 2.35809 9.20129
thorax -4.15463 1.70833 0.41897
lowerneck -23.7769 -8.70464 0.696978
upperneck -4.77295 -11.5288 -2.22933
head 2.27015 -5.86929 -1.9073
rclavicle 5.40694e-014 -6.99722e-014
rhumerus 23.3082 25.7061 -50.1044
rradius 30.5105
rwrist -31.9992
rhand -21.6067 -4.91495
rfingers 7.12502
rthumb 4.78858 -34.8408
lclavicle 5.40694e-014 -6.99722e-014
lhumerus -114.731 59.7352 -73.4027
lradius 0.517248
lwrist -96.3057
lhand -16.7075 -23.6849
lfingers 7.12502
lthumb 9.51753 6.08019
rfemur -33.1465 -8.85765 16.3761
rtibia 73.7216
rfoot -13.3272 -1.70289
rtoes 24.0374
lfemur -7.4081 9.3345 -18.0724
ltibia 44.2741
lfoot -29.0941 -5.99024
ltoes -26.3363
314
root 0.247759 16.5298 -16.0847 540.218 -222.041 -169.428
lowerback 39.0057 -4.78705 16.96
upperback 12.9785 2.25548 9.09488
thorax -3.91168 1.68546 0.389244
lowerneck -23.5233 -8.78393 0.790267
upperneck -4.40843 -11.6521 -2.28098
head 2.34537 -5.93049 -1.95159
rclavicle -3.18055e-015 6.36111e-015
rhumerus 23.3939 26.7446 -50.6031
rradius 30.3446
rwrist -31.3114
rhand -20.9347 -4.94639
rfingers 7.12502
rthumb 5.43744 -34.8566
lclavicle -3.18055e-015 6.36111e-015
lhumerus -123.758 56.3782 -82.6362
lradius 0.477128
lwrist -103.753
lhand -15.2875 -22.2695
lfingers 7.12502
lthumb 10.8874 7.42824
rfemur -30.9204 -6.21721 15.8836
rtibia 72.4685
rfoot -13.4135 -2.0174
rtoes 23.9302
lfemur -6.60562 8.13094 -17.8509
ltibia 43.3144
lfoot -29.0484 -5.77678
ltoes -25.5019
315
root 0.232344 16.5722 -16.082 539.629 -222.973 -169.708
lowerback 38.1961 -4.65005 16.7665
upperback 13.0114 2.14686 8.97563
thorax -3.64364 1.65973 0.370356
lowerneck -23.3017 -8.88107 0.833195
upperneck -3.97623 -11.7877 -2.25156
head 2.4576 -5.99307 -1.96734
rclavicle 6.36111e-014 -7.63333e-014
rhumerus 23.5463 27.8025 -51.0826
rradius 30.1578
rwrist -30.5889
rhand -20.3818 -4.75132
rfingers 7.12502
rthumb 5.97123 -34.6472
lclavicle 6.36111e-014 -7.63333e-014
lhumerus -130.711 52.1836 -89.9225
lradius 0.607889
lwrist -110.675
lhand -13.9347 -21.043
lfingers 7.12502
lthumb 12.1921 8.58173
rfemur -28.7326 -3.71765 15.5464
rtibia 71.1287
rfoot -13.3715 -2.3595
rtoes 24.3081
lfemur -5.84476 7.00584 -17.6565
ltibia 42.4627
lfoot -29.0221 -5.6331
ltoes -24.4877
316
root 0.221331 16.6129 -16.0759 539.047 -223.889 -169.992
lowerback 37.3513 -4.50455 16.5919
upperback 13.0315 2.04858 8.83465
thorax -3.36858 1.63824 0.315974
lowerneck -23.0894 -8.99039 0.851375
upperneck -3.44599 -11.9344 -2.19123
head 2.60973 -6.05894 -1.97538
rclavicle 9.54166e-015 -8.26944e-014
rhumerus 23.6801 28.8205 -51.6082
rradius 29.9528
rwrist -29.7478
rhand -19.9387 -4.37681
rfingers 7.12502
rthumb 6.399 -34.2601
lclavicle 9.54166e-015 -8.26944e-014
lhumerus -135.868 47.4586 -95.5906
lradius 0.872225
lwrist -117.06
lhand -12.699 -20.0959
lfingers 7.12502
lthumb 13.3833 9.4542
rfemur -26.6041 -1.42078 15.3863
rtibia 69.6953
rfoot -13.2736 -2.75063
rtoes 24.4876
lfemur -5.11828 5.95323 -17.4721
ltibia 41.6898
lfoot -29.022 -5.4115
ltoes -23.9268
317
root 0.212873 16.6492 -16.0671 538.46 -224.78 -170.302
lowerback 36.4898 -4.35664 16.3877
upperback 13.0371 1.94216 8.68367
thorax -3.10008 1.60916 0.267811
lowerneck -23.2394 -9.10095 0.795871
upperneck -2.25358 -12.0588 -2.23999
head 2.62386 -6.12569 -1.82676
rclavicle 5.40694e-014 -8.26944e-014
rhumerus 23.7744 30.0774 -51.9918
rradius 30.0696
rwrist -29.1712
rhand -19.6672 -4.07036
rfingers 7.12502
rthumb 6.66106 -33.9456
lclavicle 5.40694e-014 -8.26944e-014
lhumerus -139.606 42.3108 -100.079
lradius 1.25062
lwrist -122.962
lhand -11.5402 -19.4189
lfingers 7.12502
lthumb 14.5001 10.0545
rfemur -24.5067 0.759578 15.388
rtibia 68.1699
rfoot -13.2094 -3.17188
rtoes 24.2664
lfemur -4.43581 5.02056 -17.2589
ltibia 40.9901
lfoot -29.0346 -5.14541
ltoes -23.7965
318
root 0.20751 16.6802 -16.0564 537.895 -225.653 -170.577
lowerback 35.6255 -4.20499 16.1837
upperback 13.0367 1.84117 8.50095
thorax -2.82831 1.58203 0.184928
lowerneck -23.0563 -9.19716 0.846685
upperneck -1.57293 -12.2001 -2.15795
head 2.81043 -6.18707 -1.8347
rclavicle -9.54166e-015 2.22639e-014
rhumerus 23.8033 31.4709 -52.2304
rradius 30.4859
rwrist -28.7422
rhand -19.543 -3.80427
rfingers 7.12502
rthumb 6.78101 -33.6757
lclavicle -9.54166e-015 2.22639e-014
lhumerus -142.287 36.9759 -103.817
lradius 1.66992
lwrist -128.459
lhand -10.3955 -18.9535
lfingers 7.12502
lthumb 15.6028 10.4372
rfemur -22.4219 2.81023 15.4693
rtibia 66.5951
rfoot -13.1 -3.5443
rtoes 23.6096
lfemur -3.78603 4.16756 -17.0719
ltibia 40.3708
lfoot -29.089 -4.95133
ltoes -24.2224
